<?xml version="1.0" encoding="UTF-8" standalone="no"?>
<!DOCTYPE svg PUBLIC "-//W3C//DTD SVG 1.1//EN" "http://www.w3.org/Graphics/SVG/1.1/DTD/svg11.dtd">
<svg width="100%" height="100%" viewBox="0 0 512 350" version="1.1" xmlns="http://www.w3.org/2000/svg" xmlns:xlink="http://www.w3.org/1999/xlink" xml:space="preserve" xmlns:serif="http://www.serif.com/" style="fill-rule:evenodd;clip-rule:evenodd;stroke-linejoin:round;stroke-miterlimit:2;">
    <g transform="matrix(1,0,0,1,512,0)">
        <g transform="matrix(0.80311,0,0,0.80311,-216.842,35.0924)">
            <path d="M0,256L23.273,93.091L116.364,0L232.727,116.364L162.909,186.182L256,279.273L116.364,372.364L0,256Z" style="fill:rgb(0,209,178);fill-rule:nonzero;"/>
        </g>
        <g transform="matrix(-0.80311,9.83526e-17,-9.83526e-17,-0.80311,-299.57,304.652)">
            <path d="M0,256L23.273,93.091L116.364,0L232.727,116.364L162.909,186.182L256,279.273L116.364,372.364L0,256Z" style="fill:rgb(0,209,178);fill-rule:nonzero;"/>
        </g>
        <g transform="matrix(0.997959,0,0,0.997959,-28.8448,-19.8898)">
            <g transform="matrix(0.550489,0.137252,-0.137252,0.550489,-442.251,28.2145)">
                <path d="M426.628,13.026C469.231,13.026 501.73,51.334 501.73,72.613C501.73,93.892 466.115,73.836 423.512,73.836C380.908,73.836 347.346,93.892 347.346,72.613C347.346,51.334 384.024,13.026 426.628,13.026Z" style="fill:rgb(38,58,33);"/>
            </g>
            <g transform="matrix(0.605629,0.12873,-0.12873,0.605629,-472.416,59.856)">
                <path d="M424.538,34.058C467.142,34.058 501.73,51.334 501.73,72.613C501.73,93.892 469.68,80.052 427.077,80.052C384.474,80.052 347.346,93.892 347.346,72.613C347.346,51.334 381.935,34.058 424.538,34.058Z" style="fill:rgb(38,58,33);"/>
            </g>
            <g transform="matrix(0.623439,0.109929,-0.126581,0.717878,-485.866,97.2244)">
                <path d="M424.538,34.058C467.142,34.058 501.73,51.334 501.73,72.613C501.73,93.892 462.987,79.292 420.384,79.292C377.78,79.292 347.346,93.892 347.346,72.613C347.346,51.334 381.935,34.058 424.538,34.058Z" style="fill:rgb(38,58,33);"/>
            </g>
            <g transform="matrix(0.569574,0.0902117,-0.0982059,0.620047,-470.698,144.034)">
                <path d="M426.403,42.106C469.007,42.106 501.73,51.334 501.73,72.613C501.73,93.892 464.683,88.954 422.08,88.954C379.476,88.954 347.346,93.892 347.346,72.613C347.346,51.334 383.8,42.106 426.403,42.106Z" style="fill:rgb(38,58,33);"/>
            </g>
            <g transform="matrix(0.415814,0.0437039,-0.0481693,0.4583,-403.034,230.214)">
                <path d="M425.474,72.472C468.077,72.472 501.73,51.334 501.73,72.613C501.73,93.892 467.142,111.168 424.538,111.168C381.935,111.168 349.614,93.676 349.614,72.397C349.614,51.117 382.87,72.472 425.474,72.472Z" style="fill:rgb(38,58,33);"/>
            </g>
            <g transform="matrix(0.312385,0.0273301,-0.0273301,0.312385,-360.216,273.6)">
                <path d="M426.459,81.028C469.062,81.028 501.73,51.334 501.73,72.613C501.73,93.892 464.623,129.361 422.019,129.361C379.416,129.361 347.346,93.892 347.346,72.613C347.346,51.334 383.855,81.028 426.459,81.028Z" style="fill:rgb(38,58,33);"/>
            </g>
            <g transform="matrix(0.183659,0.0856416,-0.0856416,0.183659,-311.539,280.741)">
                <path d="M426.459,81.028C469.062,81.028 501.73,51.334 501.73,72.613C501.73,93.892 464.623,129.361 422.019,129.361C379.416,129.361 347.346,93.892 347.346,72.613C347.346,51.334 383.855,81.028 426.459,81.028Z" style="fill:rgb(38,58,33);"/>
            </g>
            <g transform="matrix(0.503461,0.0797403,-0.0720888,0.455151,-442.461,189.919)">
                <path d="M420.473,46.881C463.077,46.881 501.73,51.334 501.73,72.613C501.73,93.892 467.142,111.168 424.538,111.168C381.935,111.168 347.346,93.892 347.346,72.613C347.346,51.334 377.87,46.881 420.473,46.881Z" style="fill:rgb(38,58,33);"/>
            </g>
        </g>
    </g>
</svg>
