<?xml version="1.0" encoding="UTF-8" standalone="no"?>
<!DOCTYPE svg PUBLIC "-//W3C//DTD SVG 1.1//EN" "http://www.w3.org/Graphics/SVG/1.1/DTD/svg11.dtd">
<svg width="100%" height="100%" viewBox="0 0 512 350" version="1.1" xmlns="http://www.w3.org/2000/svg" xmlns:xlink="http://www.w3.org/1999/xlink" xml:space="preserve" xmlns:serif="http://www.serif.com/" style="fill-rule:evenodd;clip-rule:evenodd;stroke-linejoin:round;stroke-miterlimit:2;">
    <g transform="matrix(1,0,0,1,512,0)">
        <g transform="matrix(0.80311,0,0,0.80311,-216.842,35.0924)">
            <path d="M0,256L23.273,93.091L116.364,0L232.727,116.364L162.909,186.182L256,279.273L116.364,372.364L0,256Z" style="fill:rgb(0,209,178);fill-rule:nonzero;"/>
        </g>
        <g transform="matrix(-0.80311,9.83526e-17,-9.83526e-17,-0.80311,-299.57,304.652)">
            <path d="M0,256L23.273,93.091L116.364,0L232.727,116.364L162.909,186.182L256,279.273L116.364,372.364L0,256Z" style="fill:rgb(0,209,178);fill-rule:nonzero;"/>
        </g>
        <g transform="matrix(0.823375,0,0,0.823375,-76.2101,43.9213)">
            <g transform="matrix(0.554944,0.117957,-0.117957,0.554944,-431.024,-28.2702)">
                <path d="M426.628,13.026C469.231,13.026 501.73,51.334 501.73,72.613C501.73,93.892 466.115,73.836 423.512,73.836C380.908,73.836 347.346,93.892 347.346,72.613C347.346,51.334 384.024,13.026 426.628,13.026Z" style="fill:rgb(38,58,33);"/>
            </g>
            <g transform="matrix(0.605629,0.12873,-0.12873,0.605629,-460.604,-7.18917)">
                <path d="M424.538,34.058C467.142,34.058 501.73,51.334 501.73,72.613C501.73,93.892 469.68,80.052 427.077,80.052C384.474,80.052 347.346,93.892 347.346,72.613C347.346,51.334 381.935,34.058 424.538,34.058Z" style="fill:rgb(38,58,33);"/>
            </g>
            <g transform="matrix(0.682921,0.132746,-0.132746,0.682921,-498.261,19.8629)">
                <path d="M424.538,34.058C467.142,34.058 501.73,51.334 501.73,72.613C501.73,93.892 475.833,73.656 433.23,73.656C390.626,73.656 347.346,93.892 347.346,72.613C347.346,51.334 381.935,34.058 424.538,34.058Z" style="fill:rgb(38,58,33);"/>
            </g>
            <g transform="matrix(0.71667,0.133253,-0.133253,0.71667,-517.295,49.6886)">
                <path d="M424.538,34.058C467.142,34.058 501.73,51.334 501.73,72.613C501.73,93.892 462.987,79.292 420.384,79.292C377.78,79.292 347.346,93.892 347.346,72.613C347.346,51.334 381.935,34.058 424.538,34.058Z" style="fill:rgb(38,58,33);"/>
            </g>
            <g transform="matrix(0.678591,0.126173,-0.124368,0.668882,-506.119,90.5906)">
                <path d="M424.538,34.058C467.142,34.058 501.73,51.334 501.73,72.613C501.73,93.892 467.975,78.137 425.371,78.137C382.768,78.137 347.346,93.892 347.346,72.613C347.346,51.334 381.935,34.058 424.538,34.058Z" style="fill:rgb(38,58,33);"/>
            </g>
            <g transform="matrix(0.600499,0.0951097,-0.0982059,0.620047,-476.406,135.168)">
                <path d="M426.403,42.106C469.007,42.106 501.73,51.334 501.73,72.613C501.73,93.892 464.683,88.954 422.08,88.954C379.476,88.954 347.346,93.892 347.346,72.613C347.346,51.334 383.8,42.106 426.403,42.106Z" style="fill:rgb(38,58,33);"/>
            </g>
            <g transform="matrix(0.45739,0.0561604,-0.0561604,0.45739,-415.014,214.112)">
                <path d="M419.215,68.934C461.818,68.934 497.12,47.732 497.12,69.011C497.12,90.29 467.142,111.168 424.538,111.168C381.935,111.168 342.988,92.343 342.988,71.064C342.988,49.785 376.611,68.934 419.215,68.934Z" style="fill:rgb(38,58,33);"/>
            </g>
            <g transform="matrix(0.415814,0.0437039,-0.0481693,0.4583,-398.024,241.569)">
                <path d="M425.474,72.472C468.077,72.472 501.73,51.334 501.73,72.613C501.73,93.892 467.142,111.168 424.538,111.168C381.935,111.168 349.614,93.676 349.614,72.397C349.614,51.117 382.87,72.472 425.474,72.472Z" style="fill:rgb(38,58,33);"/>
            </g>
            <g transform="matrix(0.312385,0.0273301,-0.0273301,0.312385,-355.206,279.035)">
                <path d="M426.459,81.028C469.062,81.028 501.73,51.334 501.73,72.613C501.73,93.892 464.623,129.361 422.019,129.361C379.416,129.361 347.346,93.892 347.346,72.613C347.346,51.334 383.855,81.028 426.459,81.028Z" style="fill:rgb(38,58,33);"/>
            </g>
            <g transform="matrix(0.2361,0.0721829,-0.0721829,0.2361,-323.608,285.578)">
                <path d="M426.459,81.028C469.062,81.028 501.73,51.334 501.73,72.613C501.73,93.892 464.623,129.361 422.019,129.361C379.416,129.361 347.346,93.892 347.346,72.613C347.346,51.334 383.855,81.028 426.459,81.028Z" style="fill:rgb(38,58,33);"/>
            </g>
            <g transform="matrix(0.183659,0.0856416,-0.0856416,0.183659,-308.533,298.778)">
                <path d="M426.459,81.028C469.062,81.028 501.73,51.334 501.73,72.613C501.73,93.892 464.623,129.361 422.019,129.361C379.416,129.361 347.346,93.892 347.346,72.613C347.346,51.334 383.855,81.028 426.459,81.028Z" style="fill:rgb(38,58,33);"/>
            </g>
            <g transform="matrix(0.503461,0.0797403,-0.0720888,0.455151,-437.663,179.959)">
                <path d="M420.473,46.881C463.077,46.881 501.73,51.334 501.73,72.613C501.73,93.892 467.142,111.168 424.538,111.168C381.935,111.168 347.346,93.892 347.346,72.613C347.346,51.334 377.87,46.881 420.473,46.881Z" style="fill:rgb(38,58,33);"/>
            </g>
        </g>
    </g>
</svg>
