<?xml version="1.0" encoding="UTF-8" standalone="no"?>
<!DOCTYPE svg PUBLIC "-//W3C//DTD SVG 1.1//EN" "http://www.w3.org/Graphics/SVG/1.1/DTD/svg11.dtd">
<svg width="100%" height="100%" viewBox="0 0 512 320" version="1.1" xmlns="http://www.w3.org/2000/svg" xmlns:xlink="http://www.w3.org/1999/xlink" xml:space="preserve" xmlns:serif="http://www.serif.com/" style="fill-rule:evenodd;clip-rule:evenodd;stroke-linejoin:round;stroke-miterlimit:2;">
    <g transform="matrix(1,0,0,1,512,0)">
        <g transform="matrix(0.786515,0,0,0.786515,-213.106,16.0924)">
            <path d="M0,256L23.273,93.091L116.364,0L232.727,116.364L162.909,186.182L256,279.273L116.364,372.364L0,256Z" style="fill:rgb(0,209,178);fill-rule:nonzero;"/>
        </g>
        <g transform="matrix(-0.786515,0,2.77556e-17,0.786515,-299.311,16.0924)">
            <path d="M0,256L23.273,93.091L116.364,0L232.727,116.364L162.909,186.182L256,279.273L116.364,372.364L0,256Z" style="fill:rgb(0,209,178);fill-rule:nonzero;"/>
        </g>
        <g transform="matrix(1.04812,-0.132843,0.135804,1.07148,-25.5382,-47.7089)">
            <g transform="matrix(0.803277,0,0,0.803277,-56.9241,4.27032)">
                <g transform="matrix(0.550489,0.137252,-0.137252,0.550489,-442.251,28.2145)">
                    <path d="M426.628,13.026C469.231,13.026 501.73,51.334 501.73,72.613C501.73,93.892 466.115,73.836 423.512,73.836C380.908,73.836 347.346,93.892 347.346,72.613C347.346,51.334 384.024,13.026 426.628,13.026Z" style="fill:rgb(38,58,33);"/>
                </g>
                <g transform="matrix(0.605629,0.12873,-0.12873,0.605629,-472.416,59.856)">
                    <path d="M424.538,34.058C467.142,34.058 501.73,51.334 501.73,72.613C501.73,93.892 469.68,80.052 427.077,80.052C384.474,80.052 347.346,93.892 347.346,72.613C347.346,51.334 381.935,34.058 424.538,34.058Z" style="fill:rgb(38,58,33);"/>
                </g>
                <g transform="matrix(0.623439,0.109929,-0.126581,0.717878,-485.866,97.2244)">
                    <path d="M424.538,34.058C467.142,34.058 501.73,51.334 501.73,72.613C501.73,93.892 462.987,79.292 420.384,79.292C377.78,79.292 347.346,93.892 347.346,72.613C347.346,51.334 381.935,34.058 424.538,34.058Z" style="fill:rgb(38,58,33);"/>
                </g>
                <g transform="matrix(0.569574,0.0902117,-0.0982059,0.620047,-470.698,144.034)">
                    <path d="M426.403,42.106C469.007,42.106 501.73,51.334 501.73,72.613C501.73,93.892 464.683,88.954 422.08,88.954C379.476,88.954 347.346,93.892 347.346,72.613C347.346,51.334 383.8,42.106 426.403,42.106Z" style="fill:rgb(38,58,33);"/>
                </g>
                <g transform="matrix(0.415814,0.0437039,-0.0481693,0.4583,-403.034,230.214)">
                    <path d="M425.474,72.472C468.077,72.472 501.73,51.334 501.73,72.613C501.73,93.892 467.142,111.168 424.538,111.168C381.935,111.168 349.614,93.676 349.614,72.397C349.614,51.117 382.87,72.472 425.474,72.472Z" style="fill:rgb(38,58,33);"/>
                </g>
                <g transform="matrix(0.312385,0.0273301,-0.0273301,0.312385,-360.216,273.6)">
                    <path d="M426.459,81.028C469.062,81.028 501.73,51.334 501.73,72.613C501.73,93.892 464.623,129.361 422.019,129.361C379.416,129.361 347.346,93.892 347.346,72.613C347.346,51.334 383.855,81.028 426.459,81.028Z" style="fill:rgb(38,58,33);"/>
                </g>
                <g transform="matrix(0.183659,0.0856416,-0.0856416,0.183659,-311.539,280.741)">
                    <path d="M426.459,81.028C469.062,81.028 501.73,51.334 501.73,72.613C501.73,93.892 464.623,129.361 422.019,129.361C379.416,129.361 347.346,93.892 347.346,72.613C347.346,51.334 383.855,81.028 426.459,81.028Z" style="fill:rgb(38,58,33);"/>
                </g>
                <g transform="matrix(0.503461,0.0797403,-0.0720888,0.455151,-442.461,189.919)">
                    <path d="M420.473,46.881C463.077,46.881 501.73,51.334 501.73,72.613C501.73,93.892 467.142,111.168 424.538,111.168C381.935,111.168 347.346,93.892 347.346,72.613C347.346,51.334 377.87,46.881 420.473,46.881Z" style="fill:rgb(38,58,33);"/>
                </g>
            </g>
            <g transform="matrix(0.662751,0,0,0.662751,-95.0493,55.6331)">
                <g>
                    <g>
                        <clipPath id="_clip1">
                            <path d="M-139.323,-45.374C-154.635,-7.629 -153.867,22.878 -174.458,86.533C-187.474,126.77 -215.786,165.02 -210.431,254.59C-206.575,319.077 -228.685,330.163 -237.196,360.897C-214.011,365.851 -196.603,349.303 -174.17,349.303C-151.737,349.303 -139.323,-45.374 -139.323,-45.374"/>
                        </clipPath>
                        <g clip-path="url(#_clip1)">
                            <g transform="matrix(0.667211,0.166354,-0.166354,0.667211,-478.498,-43.3025)">
                                <path d="M426.628,13.026C469.231,13.026 501.73,51.334 501.73,72.613C501.73,93.892 466.115,73.836 423.512,73.836C380.908,73.836 347.346,93.892 347.346,72.613C347.346,51.334 384.024,13.026 426.628,13.026Z" style="fill:rgb(149,193,31);"/>
                            </g>
                            <g transform="matrix(0.734043,0.156026,-0.156026,0.734043,-515.058,-4.95202)">
                                <path d="M424.538,34.058C467.142,34.058 501.73,51.334 501.73,72.613C501.73,93.892 469.68,80.052 427.077,80.052C384.474,80.052 347.346,93.892 347.346,72.613C347.346,51.334 381.935,34.058 424.538,34.058Z" style="fill:rgb(149,193,31);"/>
                            </g>
                            <g transform="matrix(0.75563,0.133238,-0.153421,0.870093,-531.36,40.3398)">
                                <path d="M424.538,34.058C467.142,34.058 501.73,51.334 501.73,72.613C501.73,93.892 462.987,79.292 420.384,79.292C377.78,79.292 347.346,93.892 347.346,72.613C347.346,51.334 381.935,34.058 424.538,34.058Z" style="fill:rgb(149,193,31);"/>
                            </g>
                            <g transform="matrix(0.690343,0.10934,-0.119029,0.751518,-512.977,97.0746)">
                                <path d="M426.403,42.106C469.007,42.106 501.73,51.334 501.73,72.613C501.73,93.892 464.683,88.954 422.08,88.954C379.476,88.954 347.346,93.892 347.346,72.613C347.346,51.334 383.8,42.106 426.403,42.106Z" style="fill:rgb(149,193,31);"/>
                            </g>
                            <g transform="matrix(0.503981,0.0529706,-0.0583828,0.555475,-430.965,201.528)">
                                <path d="M425.474,72.472C468.077,72.472 501.73,51.334 501.73,72.613C501.73,93.892 467.142,111.168 424.538,111.168C381.935,111.168 349.614,93.676 349.614,72.397C349.614,51.117 382.87,72.472 425.474,72.472Z" style="fill:rgb(149,193,31);"/>
                            </g>
                            <g transform="matrix(0.378621,0.033125,-0.033125,0.378621,-379.068,254.112)">
                                <path d="M426.459,81.028C469.062,81.028 501.73,51.334 501.73,72.613C501.73,93.892 464.623,129.361 422.019,129.361C379.416,129.361 347.346,93.892 347.346,72.613C347.346,51.334 383.855,81.028 426.459,81.028Z" style="fill:rgb(149,193,31);"/>
                            </g>
                            <g transform="matrix(0.222601,0.103801,-0.103801,0.222601,-320.071,262.768)">
                                <path d="M426.459,81.028C469.062,81.028 501.73,51.334 501.73,72.613C501.73,93.892 464.623,129.361 422.019,129.361C379.416,129.361 347.346,93.892 347.346,72.613C347.346,51.334 383.855,81.028 426.459,81.028Z" style="fill:rgb(149,193,31);"/>
                            </g>
                            <g transform="matrix(0.610211,0.096648,-0.0873741,0.551658,-478.751,152.688)">
                                <path d="M420.473,46.881C463.077,46.881 501.73,51.334 501.73,72.613C501.73,93.892 467.142,111.168 424.538,111.168C381.935,111.168 347.346,93.892 347.346,72.613C347.346,51.334 377.87,46.881 420.473,46.881Z" style="fill:rgb(149,193,31);"/>
                            </g>
                        </g>
                    </g>
                </g>
            </g>
        </g>
    </g>
</svg>
